<svg version="1.2" xmlns="http://www.w3.org/2000/svg" viewBox="0 0 222 66" width="222" height="66"><defs><clipPath clipPathUnits="userSpaceOnUse" id="cp1"><path d="m-84-2526h1600v2775h-1600z" /></clipPath></defs><style>.s0{fill:#ffffff}</style><g clip-path="url(#cp1)"><path class="s0" d="m37.9 3.7v1.8q-3.3 0-3.9 0.6q-1.5 1.4-1.5 4.3l0.2 33.5h-1.4l-24-37.1v29.5q0 2.9 1.4 4.3q0.6 0.6 3.9 0.6v1.7h-12.6v-1.7q3.2 0 3.8-0.5q1.5-1.4 1.5-4.4v-29.5q-0.1-1.3-1.7-1.3h-3.1v-1.8h11.3l18.9 29.3v-22.6q0-2.9-1.6-4.4q-0.7-0.5-3.8-0.5v-1.8z" /><path fill-rule="evenodd" class="s0" d="m65 30.2h-18.1q0 5 2.5 7.8q2.6 3 7.5 3q2.6 0 6.8-2.6l0.7 0.5q-4 5-10 5q-5.9 0-9.4-3.6q-3.1-3.5-3.1-9.2q0-5.7 3.4-9.9q3.4-4.2 9.2-4.2q4.8 0 7.7 3.2q2.9 3.2 2.9 7.9q0 0.6-0.1 2.1zm-4.9-2.1q0-4.1-1.5-6.7q-1.5-2.6-4.5-2.6q-3 0-5.1 2.5q-2 2.4-2 6.7q10.6 0.3 13.1 0.1z" /><path class="s0" d="m102.7 42.4v1.5h-13.9v-1.5h3.4q1.1 0 1.2-1.3v-13.5q0-3.3-1.7-5.2q-1.7-1.8-4.4-1.8q-2.6 0-4.9 1.7q-2.2 1.9-2.2 3.5v15.3q0.2 1.3 1.3 1.3h3.3v1.5h-13.8v-1.5h3.3q1.1 0 1.3-1.3v-19.7q-0.1-2-2-2h-2.6v-1.5h9.3v1.5q-0.1 0.7-0.1 1.6v1.2q0.5-1.1 2.4-2.8q2.9-2.2 6.3-2.2q9.2 0 9.2 9.7v14.2q0.2 1.3 1.3 1.3z" /><path class="s0" d="m137.7 41.6v1.6h-9.1l-0.1-4.6q-3.5 5.3-10 5.3q-5.2 0-6.9-3.1q-0.9-1.7-0.9-6.5v-13.7q-0.2-1.9-2-1.9h-2.6v-1.5h9.2v16.6q0 3.6 1.3 5.1q1.2 1.6 4.7 1.6q2.5 0 4.8-2.2q2.3-2.3 2.3-4.2v-13.5q-0.1-1.9-2.1-1.9h-2.6v-1.5h9.3v23.2q0 0.6 0.5 0.9q0.4 0.3 0.9 0.3z" /><path fill-rule="evenodd" class="s0" d="m190.9 30.2h-18.1q0 5 2.5 7.8q2.5 3 7.5 3q2.6 0 6.8-2.6l0.7 0.5q-4 5-10 5q-6 0-9.4-3.6q-3.2-3.5-3.2-9.2q0-5.7 3.5-9.9q3.4-4.2 9.2-4.2q4.8 0 7.7 3.2q2.9 3.2 2.9 7.9q0 0.6-0.1 2.1zm-4.9-2.1q0-4.1-1.5-6.7q-1.5-2.6-4.6-2.6q-3 0-5 2.5q-2.1 2.4-2.1 6.7q10.7 0.3 13.2 0.1z" /><path fill-rule="evenodd" class="s0" d="m222 41.6v1.6h-9.1v-4.6q-5.1 5.3-9.6 5.3q-3 0-4.8-1.8q-2-1.7-2-5q0-4.5 3.5-6.7q2.6-1.6 7.3-2.4l5.6-1q0.1-4-0.7-5.9q-1.1-2.7-3.9-2.7q-4.8 0-4.9 3.3q0 0.5 0.7 1.3q0.6 0.8 0.6 0.8q0.1 0.9-0.8 1.4q-0.9 0.6-1.6 0.4q-2.9 0-2.8-3.1q0-3.2 3.9-4.8q2.4-0.9 5.1-0.9q4.5 0 6.7 2.5q2.2 2.8 2.2 8.7v12.4q0 0.5 0.4 0.9q0.4 0.3 0.9 0.3zm-9.1-5.3v-7.4q-5 0.6-8.1 1.9q-1.5 0.5-2.5 2.1q-1 1.5-1 3.3q0 1.8 1.3 3.1q1.3 1.2 3.1 1.3q1.8 0.1 3.8-1.2q2-1.2 3.4-3.1z" /><path class="s0" d="m160.1 3.6c0.3-1.9-1.5-2.9-3.9-2.1c-2.3 0.9-2.5 8.5-2.5 8.5l-0.2 17.5h6.7v2.3h-6.7v35.5h-5.4l0.1-35.5h-5.9v-2.3h5.9v-9.2c0 0-0.2-4.4 0.8-9.6c1-5.3 3.4-7.1 6.3-7.9c2.8-0.9 8.2-0.7 10 2.5c1.7 3.1 0.5 6.4-2.9 6.1c-3.4-0.2-2.6-3.6-2.6-3.6c0 0 0.1-0.3 0.3-2.2z" /></g></svg>