<svg version="1.2" xmlns="http://www.w3.org/2000/svg" viewBox="0 0 71 27" width="71" height="27"><defs><clipPath clipPathUnits="userSpaceOnUse" id="cp1"><path d="m-1445-2728h1600v2775h-1600z" /></clipPath></defs><style>.s0{fill:#ffffff}</style><g clip-path="url(#cp1)"><path fill-rule="evenodd" class="s0" d="m42 14.8h-8.8l0.1 0.2c0.6 1.4 1.8 2.2 3.2 2.2c0.9 0 1.7-0.3 2.3-0.9l1.5 1.5c-1 1-2.4 1.5-3.8 1.5c-2.6 0-4.8-1.8-5.4-4.4q-0.1-0.5-0.1-1.1q0-0.6 0.1-1.2c0.6-2.5 2.8-4.4 5.4-4.4c2.6 0 4.9 1.9 5.4 4.4q0.2 0.6 0.2 1.2q0 0.5-0.1 1zm-2.2-2.1l-0.1-0.2c-0.5-1.3-1.8-2.2-3.2-2.2c-1.4 0-2.6 0.9-3.2 2.2l-0.1 0.2z" /><path class="s0" d="m54.7 13.8q0 0.6-0.2 1.1c-0.5 2.6-2.8 4.4-5.4 4.4c-3 0-5.5-2.5-5.5-5.5c0-3.1 2.5-5.6 5.5-5.6c1.5 0 2.8 0.6 3.8 1.5l-1.5 1.5c-0.6-0.6-1.4-0.9-2.3-0.9c-1.9 0-3.4 1.6-3.4 3.5c0 1.9 1.5 3.4 3.4 3.4c1.4 0 2.7-0.8 3.2-2.2l0.1-0.2h-3.1v-2.1h5.3q0.1 0.5 0.1 1.1z" /><path fill-rule="evenodd" class="s0" d="m70.9 13.8c0 3-2.5 5.5-5.5 5.5c-3.1 0-5.6-2.5-5.6-5.5c0-3.1 2.5-5.6 5.6-5.6c3 0 5.5 2.5 5.5 5.6zm-2.1 0c0-1.9-1.5-3.5-3.4-3.5c-1.9 0-3.5 1.6-3.5 3.5c0 1.9 1.6 3.4 3.5 3.4c1.9 0 3.4-1.5 3.4-3.4z" /><path class="s0" d="m56.2 8.4h2.1v10.7h-2.1z" /><path fill-rule="evenodd" class="s0" d="m24.3 19.1c-0.2 0.6-0.8 0.8-1.3 0.5c-0.6-0.2-0.8-0.8-0.5-1.3q1.1-2.4 0.9-5c-0.1-2.4-1-4.6-2.4-6.3l-1.8 1.8c1.1 1.4 1.7 3.1 1.7 4.9c0 0.6-0.4 1.1-1 1.1h-4.4c-0.4 1.1-1.5 1.9-2.7 1.9c-1.7 0-3-1.3-3-2.9c0-1.7 1.3-3 3-3c1.2 0 2.3 0.8 2.7 1.9h3.3c-0.3-1.3-0.9-2.4-1.9-3.4c-1.2-1.1-2.8-1.7-4.5-1.6c-3 0.2-5.6 2.7-5.7 5.7c-0.1 1.7 0.5 3.3 1.7 4.6c1.1 1.2 2.7 1.8 4.4 1.8c1.1 0 2.2-0.3 3.1-0.8c1.3-0.8 3-0.6 4.1 0.5c0.7 0.7 1.1 1.7 0.9 2.8c-0.1 1-0.7 1.9-1.6 2.4c-2 1.2-4.2 1.8-6.5 1.8q-0.4 0-0.8 0c-6.4-0.4-11.6-5.5-12-11.9c-0.2-3.6 1-7 3.5-9.7c2.5-2.5 6-4 9.5-3.9c6.7 0.1 12.2 5.5 12.5 12.2q0.1 3.1-1.2 5.9zm-6.5-11.8l1.8-1.8c-1.8-1.5-4.1-2.4-6.6-2.4c-3-0.1-5.9 1.1-8 3.3c-2.1 2.2-3.1 5-2.9 8.1c0.3 5.3 4.6 9.6 10 9.9c2.2 0.2 4.3-0.4 6.2-1.5c0.3-0.2 0.5-0.5 0.6-0.9c0-0.4-0.1-0.8-0.4-1.1c-0.4-0.4-1-0.4-1.5-0.1c-1.3 0.7-2.7 1.1-4.2 1.1c-2.3 0-4.4-0.9-5.9-2.5c-1.6-1.6-2.4-3.8-2.3-6.1c0.2-4.1 3.6-7.5 7.7-7.7c2-0.1 3.9 0.5 5.5 1.7z" /></g></svg>