<svg version="1.2" xmlns="http://www.w3.org/2000/svg" viewBox="0 0 118 80" width="118" height="80"><defs><clipPath clipPathUnits="userSpaceOnUse" id="cp1"><path d="m-136-2426h1600v2775h-1600z" /></clipPath></defs><style>.s0{fill:#ffffff}</style><g clip-path="url(#cp1)"><path fill-rule="evenodd" class="s0" d="m57.4 79.5q0 0 0-0.1c-68.7 1.2-55.9-51.8-55.9-51.8c5.6-0.3 10.6-0.1 15.2 0.3c0.5-6.6 2.6-13.8 7.1-21.6c0 0 8.8 3.1 17.8 10.1c0.9-1.3 8.7-11.8 18.4-16.4c0 0 10.6 8.2 16.1 16.7c4.6-3.8 10.4-7.4 17.6-10.4c0 0 6.4 9.3 7.3 22.2c9.2-0.9 16.1-0.1 16.1-0.1c6.4 56.9-59.7 51.1-59.7 51.1zm6-30.8q0.2-0.4 0.5-0.7q0-0.2 0.1-0.3q0.1-0.1 0.2-0.3q0.2-0.2 0.3-0.4q0.1-0.2 0.3-0.4q0.1-0.1 0.2-0.2q0.2-0.3 0.4-0.6q0.2-0.2 0.4-0.5q0.2-0.3 0.4-0.5q0.2-0.3 0.4-0.6q0.2-0.2 0.5-0.5q0-0.1 0.1-0.1q0.2-0.3 0.5-0.6q0.2-0.2 0.4-0.4q0.2-0.2 0.4-0.5q0.2-0.2 0.5-0.4q0.4-0.4 0.9-0.8q0.9-0.9 1.9-1.7q0.1-0.1 0.3-0.3q0.2-0.1 0.4-0.3q0.2-0.1 0.4-0.2q0-0.1 0-0.1q0 0 0.1 0q0.2-0.2 0.5-0.4q0.2-0.1 0.3-0.2q0.2-0.1 0.3-0.2q0.5-0.4 1-0.7q0.3-0.2 0.5-0.3q0.2-0.2 0.4-0.3q0.2-0.1 0.4-0.2q0.2-0.1 0.4-0.3q0.4-0.2 0.9-0.4q0.5-0.3 1-0.6q0.5-0.3 1-0.5q0.3-0.2 0.6-0.3q0.2-0.1 0.5-0.2q0.2-0.1 0.5-0.3q0.6-0.2 1.1-0.4q0.3-0.1 0.5-0.2q0.3-0.2 0.6-0.3q0.5-0.2 1.1-0.4q1.1-0.4 2.3-0.8q0.4-0.1 0.8-0.2q0.4-0.1 0.8-0.2q0.5-0.2 0.9-0.3q0.6-0.2 1.1-0.3q0.6-0.1 1.1-0.3q0.3 0 0.5-0.1l0.5-0.1l0.6-0.1q0.4-0.1 0.8-0.2q0.4 0 0.8-0.1c-0.3-4.8-1.3-10.1-3.8-15.9c0 0-25.2 11-27.6 35.2zm-40.4-20q3.3 0.6 6.2 1.4q0 0 0 0q0.1 0 0.2 0q0.2 0.1 0.4 0.1q0.4 0.1 0.7 0.2q0.7 0.2 1.3 0.4q0.7 0.3 1.3 0.5q0.4 0.1 0.7 0.2q0.6 0.3 1.3 0.5q0.2 0.1 0.5 0.2q0.6 0.3 1.3 0.6q0.2 0.1 0.4 0.2q0.1 0 0.2 0.1q0.1 0 0.2 0.1q0.3 0.1 0.5 0.2q0.2 0.1 0.4 0.2q0.6 0.2 1.1 0.5q0.4 0.2 0.7 0.4q0.1 0.1 0.2 0.1q0.3 0.2 0.7 0.4q1 0.6 2 1.3q0.2 0.1 0.5 0.3q0.5 0.4 1 0.8q0.3 0.1 0.5 0.3q0.3 0.2 0.5 0.4q0.2 0.1 0.3 0.3q0.3 0.2 0.6 0.4q0.2 0.2 0.5 0.5q0 0 0 0q0.3 0.3 0.6 0.5q0.3 0.3 0.6 0.6q0.2 0.1 0.4 0.3q0.2 0.2 0.4 0.4q0.1 0.2 0.3 0.4q0.2 0.1 0.3 0.3q0.4 0.4 0.7 0.8q0.3 0.3 0.6 0.7q0.3 0.3 0.6 0.7q0 0 0 0q0.2 0.2 0.3 0.5q0 0 0 0q0.1 0.1 0.2 0.2q0.1 0.2 0.2 0.3q0.1 0.2 0.2 0.3q0.3 0.3 0.5 0.7q0.1 0 0.1 0.1q0.2 0.3 0.4 0.6q0 0 0 0q0.2 0.3 0.4 0.6v0.1q0.1 0.1 0.2 0.3q0.1 0.2 0.2 0.4c-1.4-10.7-8-23.7-27.9-34.6q0 0-0.2 0.5q-0.1 0.1-0.1 0.2q0 0.1-0.1 0.2q-0.1 0.2-0.2 0.6q-0.1 0.1-0.1 0.2q0 0.1-0.1 0.1q0 0.2-0.1 0.3q-0.1 0.4-0.3 0.8q0 0.2-0.1 0.4q0 0.2-0.1 0.3q0 0.1-0.1 0.3q0 0.2-0.1 0.4q-0.1 0.4-0.2 0.8q-0.2 0.5-0.4 1.1q0 0.3-0.1 0.6q0 0.2-0.1 0.3q-0.1 0.3-0.1 0.7q-0.1 0.3-0.2 0.6q0 0.2 0 0.4q-0.1 0.4-0.2 0.8q0 0.2-0.1 0.5q0 0.2 0 0.4q-0.1 0.4-0.1 0.8q-0.1 0.1-0.1 0.3q0 0.2 0 0.3q-0.1 0.5-0.1 0.9q-0.1 0.2-0.1 0.5q0 0.3 0 0.7q0 0.2-0.1 0.4q0 0.4 0 0.8zm25.2 45.9c-4.8-2.6-11.8-7-17.9-13.3q-0.4-0.3-0.7-0.6c-6.7-7.1-12.4-16.3-13-27.8c-5.6-0.6-9.7-0.3-9.7-0.3c-3.2 35.7 27.8 41.2 41.3 42zm3.3-18.9q0-0.1-0.1-0.1q-1-2.6-2.3-4.8q0 0 0 0q-0.2-0.2-0.3-0.5q0 0 0 0c-1.4-2.2-3-4.2-4.7-5.9q-0.2-0.2-0.4-0.4q-0.2-0.2-0.4-0.3q-0.4-0.4-0.8-0.7q-0.2-0.2-0.4-0.3q-0.1-0.2-0.3-0.4q-0.2-0.1-0.4-0.3q-0.4-0.3-0.9-0.6q-0.4-0.3-0.8-0.6q-0.4-0.3-0.8-0.6q-0.2-0.1-0.4-0.2q-0.3-0.2-0.5-0.4q-0.4-0.2-0.8-0.4q-0.4-0.3-0.8-0.5q-0.5-0.3-0.9-0.5q-0.5-0.2-0.9-0.4q-0.4-0.2-0.8-0.4q-0.1 0-0.2-0.1q-0.4-0.2-0.8-0.3q-0.4-0.2-0.9-0.4q-0.4-0.2-0.8-0.3q-0.9-0.4-1.8-0.7q-0.5-0.2-0.9-0.3q-0.1 0-0.1 0q-0.4-0.2-0.8-0.3q-0.5-0.1-0.9-0.2q-1-0.3-1.9-0.5q-0.3-0.1-0.5-0.1q-0.1-0.1-0.1-0.1q-0.2 0-0.3 0q-0.3-0.1-0.7-0.2q0 0.3 0.1 0.5q0 0.3 0 0.6q0.1 0.2 0.1 0.5q0 0.3 0.1 0.6q0 0.4 0.1 0.8q0 0.2 0.1 0.5q0.1 0.4 0.2 0.8q0.1 0.7 0.3 1.4q0 0.3 0.1 0.7q0.1 0.3 0.2 0.6q0.1 0.5 0.3 0.9q0.1 0.5 0.3 1v0.1q0.1 0.3 0.2 0.6q0.2 0.3 0.3 0.7q0.3 0.7 0.6 1.3q0 0.3 0.2 0.5q0.1 0.2 0.2 0.5q0.1 0.2 0.2 0.4q0.3 0.7 0.7 1.4q0.1 0.2 0.2 0.5q0.2 0.2 0.3 0.4q0.3 0.5 0.6 1q0.8 1.4 1.8 2.8q0.2 0.2 0.4 0.4q0.1 0.3 0.3 0.5q0.2 0.2 0.4 0.5q0.2 0.2 0.3 0.4q0.2 0.3 0.4 0.5q1 1.1 2.1 2.3q0.2 0.2 0.4 0.4q0.2 0.3 0.5 0.5q0.7 0.7 1.4 1.4q0.5 0.4 1 0.9q0.3 0.2 0.6 0.5q0.2 0.1 0.4 0.3q0.6 0.5 1.2 1q0.3 0.2 0.5 0.4q0 0 0.1 0.1q0.3 0.2 0.6 0.4q0.6 0.5 1.2 0.9q0.3 0.2 0.6 0.4q0.1 0.1 0.1 0.1q0.3 0.2 0.6 0.4q0.9 0.6 1.9 1.2q0.1 0.1 0.2 0.1c2.5 1.7 5.7 3.6 9.4 5.6c0 0 0.2-7.6-3.4-16.5zm7.3-15.8c4.4-11 13-19.4 13-19.4c-1.2-2.1-5.1-6.5-8.1-9.9q-0.2-0.1-0.3-0.3q-1.6-1.8-3.4-3.7q-0.1-0.1-0.2-0.2q-0.1-0.1-0.1-0.1q-0.1 0.1-0.2 0.1c-1.3 1.1-10 8-13.7 13.6q1.6 1.4 3 3q0 0.1 0.1 0.1q2.4 2.6 4.5 5.7q0.1 0.1 0.2 0.3c1.8 2.7 3.4 5.6 4.5 8.9q0.1 0.2 0.2 0.4q0 0.1 0 0.2q0.1 0.1 0.1 0.1q0 0.1 0 0.1q0.1 0.2 0.1 0.3q0.1 0.2 0.1 0.3q0.1 0.1 0.1 0.1q0 0.1 0 0.2q0.1 0.2 0.1 0.2zm11.9 27.9c7.1-4.1 21.7-14.4 23.9-32q0-0.2 0.1-0.4q0-0.2 0-0.3q0-0.1 0-0.1q0-0.4 0.1-0.8q-1.5 0.3-2.9 0.7q-0.2 0.1-0.5 0.1q-0.2 0.1-0.4 0.2q-0.5 0.1-0.9 0.2q-0.4 0.2-0.9 0.3q-0.1 0.1-0.3 0.1q-0.2 0.1-0.5 0.2q-0.5 0.2-1.1 0.4q-0.2 0.1-0.5 0.2q-0.5 0.2-0.9 0.3q-0.4 0.2-0.8 0.4q-0.1 0-0.1 0q-0.2 0.1-0.5 0.2q-0.1 0.1-0.2 0.1q-0.3 0.2-0.7 0.4q-0.3 0.1-0.7 0.3q-0.4 0.2-0.7 0.4q0 0 0 0q-0.4 0.2-0.7 0.4q-0.7 0.4-1.4 0.8q-0.4 0.2-0.7 0.5q-0.3 0.2-0.5 0.3q-0.4 0.3-0.8 0.5q-0.2 0.2-0.4 0.4q-0.5 0.3-0.9 0.6q-0.1 0.1-0.1 0.2q-0.1 0-0.2 0.1q-0.3 0.2-0.6 0.4q-0.2 0.3-0.5 0.5q-0.2 0.2-0.5 0.4q-0.2 0.3-0.4 0.5q-0.3 0.2-0.6 0.5q-0.4 0.5-0.9 0.9q-0.2 0.3-0.4 0.5q-0.3 0.3-0.5 0.5q-0.2 0.3-0.4 0.5q-0.2 0.3-0.4 0.5q-0.2 0.3-0.4 0.5q0 0.1 0 0.1q-0.3 0.3-0.5 0.6q-0.2 0.3-0.4 0.6q-0.5 0.7-0.9 1.4q-0.2 0.2-0.3 0.4q-0.2 0.4-0.4 0.8q-0.1 0.2-0.2 0.4q-0.9 1.5-1.6 3.1q0 0.1 0 0.1q-0.2 0.4-0.3 0.8q-0.1 0.3-0.2 0.5q-0.5 1.2-0.8 2.4c-1 2.9-2.2 7.3-3.3 13.2q0 0 0 0q0 0 0 0q0 0 0 0q0.1 0 0.1 0q0 0 0 0c0.6-0.3 3.8-1.7 8.6-4.8zm-8.6 4.8q0 0 0 0q0 0 0 0zm49.3-33.7q0-0.4 0-0.8q0-0.1 0-0.2q0-0.1 0-0.3q0-0.3 0-0.6q-0.1-0.7-0.1-1.4q0-0.2-0.1-0.4q0-0.2 0-0.3q0-0.3-0.1-0.6q0-0.2 0-0.4q0 0 0-0.1q0-0.1 0-0.1q0-0.1-0.1-0.3q0-0.1 0-0.2q0 0 0 0q0-0.1 0-0.2q0-0.1-0.1-0.2q0 0 0 0q0-0.1 0-0.1q0 0 0 0q0 0 0 0q-0.3 0-0.5 0q-2.5 0-4.9 0.1q-0.5 0-1.1 0.1q-0.2 0-0.5 0q-0.2 0-0.4 0q-0.4 0.1-0.8 0.1q-0.3 0-0.6 0.1q-0.5 0-1.1 0.1c-0.5 12.9-7.4 28.4-30.9 41.3q0.4 0 0.9-0.1q0.4 0 0.8 0q0.5-0.1 1.1-0.1q0.2 0 0.4-0.1q0.2 0 0.4 0q0.1 0 0.2 0q0.6-0.1 1.2-0.1q0.9-0.2 1.7-0.3q0.3 0 0.6-0.1q0.4 0 0.8-0.1q0.7-0.1 1.4-0.2q0.7-0.2 1.5-0.3q0.7-0.2 1.3-0.3q0.4-0.1 0.7-0.2q0.2 0 0.4-0.1q0.1 0 0.2-0.1q0.1 0 0.2 0q0.3-0.1 0.5-0.1q0.4-0.1 0.7-0.2q0.9-0.3 1.9-0.6q0.6-0.2 1.2-0.4q0.4-0.2 0.8-0.3q0.5-0.2 0.9-0.4q0.3-0.1 0.6-0.2q0.2-0.1 0.5-0.2q0.1-0.1 0.3-0.1q0.4-0.2 0.8-0.4q0.5-0.2 1-0.5q0.3-0.1 0.5-0.3q0.2-0.1 0.5-0.2q0.1-0.1 0.3-0.2q0.3-0.2 0.6-0.4q0.3-0.1 0.5-0.2q0.5-0.3 0.9-0.6q0.2-0.1 0.5-0.3q0.4-0.2 0.8-0.5q0.4-0.3 0.8-0.6q0.4-0.3 0.8-0.6q0.4-0.3 0.8-0.7q0.4-0.3 0.7-0.6q0.4-0.4 0.8-0.8q0.2-0.1 0.4-0.3q0.2-0.2 0.4-0.4q0.2-0.2 0.4-0.4q0.4-0.4 0.8-0.9q0 0 0 0q0.1-0.2 0.2-0.3q0.2-0.2 0.4-0.4q0.1-0.2 0.3-0.4q0.3-0.4 0.6-0.7q0.1-0.3 0.3-0.6q0.2-0.2 0.3-0.4q0.1-0.2 0.3-0.4q0.1-0.2 0.3-0.4q0.1-0.2 0.2-0.4q0.1-0.2 0.3-0.4q0.1-0.2 0.2-0.4q0.1-0.2 0.2-0.4q0.1-0.2 0.3-0.5q0.1-0.2 0.2-0.4q0.1-0.3 0.3-0.5q0.1-0.4 0.3-0.8q0.1-0.2 0.2-0.4q0.2-0.4 0.3-0.9q0.1 0 0.1 0q0-0.2 0.1-0.4q0.1-0.2 0.2-0.4q0.3-1 0.6-2q0.1-0.2 0.2-0.4q0-0.2 0.1-0.4q0-0.3 0.1-0.5q0-0.2 0.1-0.3q0-0.2 0.1-0.4q0-0.3 0.1-0.5q0.1-0.2 0.1-0.5q0 0 0 0q0.1-0.3 0.1-0.6q0-0.1 0-0.1q0.1-0.3 0.1-0.6q0.1-0.4 0.2-0.7q0-0.1 0-0.3q0-0.2 0-0.3q0.1-0.2 0.1-0.3q0-0.3 0-0.5q0.1-0.3 0.1-0.5q0-0.1 0-0.3q0.1-0.3 0.1-0.6q0-0.3 0-0.6q0-0.1 0-0.3q0-0.3 0.1-0.6q0-0.3 0-0.7q0-0.3 0-0.6z" /></g></svg>