<svg version="1.2" xmlns="http://www.w3.org/2000/svg" viewBox="0 0 135 41" width="135" height="41"><defs><clipPath clipPathUnits="userSpaceOnUse" id="cp1"><path d="m-171-73h1600v2775h-1600z" /></clipPath></defs><style>.s0{fill:#000000}</style><g clip-path="url(#cp1)"><path class="s0" d="m23.3 3v1q-2 0-2.4 0.4q-0.9 0.9-0.9 2.6l0.1 20.3h-0.8l-14.6-22.5v17.9q0 1.8 0.9 2.6q0.3 0.4 2.3 0.4v1h-7.6v-1q1.9 0 2.3-0.3q0.9-0.9 0.9-2.7v-17.9q-0.1-0.8-1-0.8h-1.9v-1h6.9l11.4 17.7v-13.7q0-1.7-1-2.7q-0.3-0.3-2.2-0.3v-1z" /><path fill-rule="evenodd" class="s0" d="m39.7 19h-10.9q0 3 1.5 4.7q1.5 1.9 4.5 1.9q1.6 0 4.2-1.6l0.4 0.3q-2.5 3-6.1 3q-3.6 0-5.7-2.1q-1.9-2.2-1.9-5.6q0-3.5 2.1-6.1q2.1-2.5 5.6-2.5q2.9 0 4.7 2q1.7 1.9 1.7 4.7q0 0.4-0.1 1.3zm-2.9-1.2q0-2.5-0.9-4.1q-1-1.6-2.8-1.6q-1.8 0-3.1 1.5q-1.2 1.5-1.2 4.1q6.5 0.2 8 0.1z" /><path class="s0" d="m62.6 26.4v0.9h-8.4v-0.9h2q0.7 0 0.8-0.8v-8.2q0-2-1-3.1q-1.1-1.1-2.7-1.1q-1.6 0-3 1q-1.3 1.2-1.3 2.1v9.3q0.1 0.8 0.8 0.8h2v0.9h-8.4v-0.9h2q0.7 0 0.8-0.8v-11.9q-0.1-1.2-1.2-1.2h-1.6v-0.9h5.6v0.9q0 0.4 0 1v0.6q0.3-0.6 1.4-1.6q1.8-1.4 3.9-1.4q5.5 0 5.5 5.9v8.6q0.1 0.8 0.8 0.8z" /><path class="s0" d="m83.9 25.9v1h-5.6v-2.8q-2.1 3.2-6.1 3.2q-3.2 0-4.2-1.8q-0.5-1.1-0.5-4v-8.3q-0.1-1.2-1.2-1.2h-1.6v-0.9h5.6v10.1q0 2.2 0.7 3.1q0.8 1 2.9 1q1.5 0 2.9-1.4q1.4-1.3 1.4-2.5v-8.2q-0.1-1.2-1.3-1.2h-1.5v-0.9h5.6v14.1q0 0.4 0.3 0.6q0.3 0.1 0.5 0.1z" /><path fill-rule="evenodd" class="s0" d="m116.1 19h-11q0 3 1.6 4.7q1.5 1.9 4.5 1.9q1.6 0 4.1-1.6l0.5 0.3q-2.5 3-6.1 3q-3.6 0-5.7-2.1q-1.9-2.2-1.9-5.6q0-3.5 2-6.1q2.1-2.5 5.7-2.5q2.9 0 4.6 2q1.8 1.9 1.8 4.7q0 0.4-0.1 1.3zm-3-1.2q0-2.5-0.9-4.1q-0.9-1.6-2.7-1.6q-1.8 0-3.1 1.5q-1.2 1.5-1.2 4.1q6.4 0.2 7.9 0.1z" /><path fill-rule="evenodd" class="s0" d="m135 25.9v1h-5.5v-2.8q-3.1 3.2-5.8 3.2q-1.9 0-3-1q-1.2-1.1-1.2-3.1q0-2.7 2.1-4.1q1.6-0.9 4.5-1.4l3.4-0.6q0-2.5-0.4-3.6q-0.7-1.6-2.4-1.6q-3 0-3 1.9q0 0.4 0.4 0.8q0.4 0.5 0.4 0.5q0 0.6-0.5 0.9q-0.5 0.4-1 0.2q-1.7 0-1.7-1.9q0.1-1.9 2.4-2.8q1.5-0.6 3.1-0.6q2.7 0 4.1 1.5q1.3 1.7 1.3 5.3v7.5q0 0.3 0.2 0.5q0.3 0.2 0.6 0.2zm-5.5-3.2v-4.5q-3 0.4-5 1.2q-0.9 0.3-1.4 1.2q-0.6 1-0.6 2.1q0 1.1 0.7 1.8q0.8 0.8 1.9 0.8q1.1 0.1 2.3-0.7q1.2-0.8 2.1-1.9z" /><path class="s0" d="m97.5 2.9c0.1-1.1-0.9-1.8-2.4-1.3c-1.4 0.5-1.5 5.2-1.5 5.2l-0.1 10.6h4v1.4h-4v21.5h-3.3v-21.5h-3.6v-1.4h3.6v-5.6c0 0-0.1-2.7 0.5-5.9c0.6-3.1 2.1-4.2 3.8-4.7c1.7-0.6 5-0.4 6.1 1.5c1 1.9 0.3 3.9-1.7 3.7c-2.1-0.1-1.6-2.2-1.6-2.2c0 0 0-0.2 0.2-1.3z" /></g></svg>